
<svg width="227" height="160" fill="none" xmlns="http://www.w3.org/2000/svg"><path d="M151.245 159.999v-2.166a61.111 61.111 0 0 0-.577-6.026 37.26 37.26 0 0 0-.865-4.519c-5.957-26.27-29.883-45.948-58.518-45.948-25.656 0-51.504 17.136-56.981 40.487-.769 3.484-1.441 16.76-8.36 11.769-1.249-.941-1.922-2.354-3.075-3.389-2.498-2.26-5.765-3.484-9.224-3.484C6.15 146.535 0 152.561 0 159.999h151.245Z" fill="#FA9269"/><path d="M151.245 160h-19.794a29.53 29.53 0 0 0-4.612-8.757c-2.018-2.636-4.516-4.896-7.303-6.779l-50.447-36.627 80.715 39.452c.384 1.506.673 3.013.865 4.519.288 1.977.48 3.955.576 6.026v.188c-.096.66 0 1.319 0 1.978Z" fill="#993F21"/><path d="m64.956 105.765 42.952 20.997 42.952 20.997L179.398 3.606c.577-2.919-2.979-4.802-5.093-2.73L64.955 105.765Z" fill="#FFCF70"/><path d="m176.227 19.52-3.939 7.343-13.549-6.967 4.612-8.663-2.402 2.354-3.075 5.838-1.922-1.036-.768.753 2.306 1.13-6.823 12.9-6.534-3.39-.768.753 6.822 3.578-6.918 12.994-11.147-5.744-.769.753 11.435 5.932-6.822 12.9-13.453-6.968 3.556-6.59-2.403 2.353-2.018 3.766-1.249-.659-.768.753 1.537.848-6.822 12.9-5.862-3.014-.769.753 6.15 3.202-7.014 12.71-10.474-5.366-.769.753 10.762 5.555-6.822 12.9-13.549-6.968 2.403-4.52-2.499 2.355-.865 1.694-.48-.376-.769.753.865.47-6.822 12.9-5.19-2.636-.768.753 5.477 2.825-4.132 7.815.961.47 4.132-7.72 13.549 6.967-3.94 7.438.96.471 3.94-7.438 13.549 6.967-3.747 7.062.961.471 3.747-7.062 13.549 6.968-3.556 6.779.961.471 3.556-6.78 13.548 6.968-3.363 6.403.961.47 3.363-6.402 13.549 6.967-3.171 6.12.961.471 3.171-6.026 1.825.942.192-1.036-1.537-.753 2.691-5.085.672-3.577-4.324 8.191-13.548-6.967 6.822-12.9 12.107 6.309.192-1.036-11.819-6.12 6.823-12.9 7.975 4.143.192-1.035-7.687-3.955 6.822-12.9 3.748 1.978.192-1.036-3.555-1.789 6.15-11.675.672-3.578-.48.942-13.453-6.968 6.823-12.9 9.897 5.085.192-1.035-9.609-4.99 6.822-12.9 5.766 2.919.192-1.036-5.477-2.825 6.822-12.899 1.538.847.192-1.035-1.345-.66 2.306-4.33.576-3.86ZM136.35 62.265l13.549 6.967-6.823 12.9-13.548-6.968 6.822-12.9Zm-14.125 26.646 6.822-12.9 13.549 6.968-6.822 12.9-13.549-6.968Zm12.972 8.003-6.822 12.899-13.549-6.967 6.822-12.9 13.549 6.968Zm-13.26-42.088 13.548 6.968-6.822 12.9-13.549-6.968 6.823-12.9Zm-7.303 13.747 13.548 6.968-6.822 12.9-13.548-6.968 6.822-12.9Zm-7.303 13.841 13.549 6.968-6.823 12.899-13.548-6.968 6.822-12.899ZM92.245 108.59l-13.549-6.967 6.823-12.9 13.548 6.968-6.822 12.899Zm14.413 7.533-13.548-6.968 6.822-12.899 13.549 6.968-6.823 12.899Zm14.414 7.438-13.549-6.967 6.823-12.9 13.548 6.968-6.822 12.899Zm14.509 7.533-13.548-7.062 6.822-12.899 13.549 6.967-6.823 12.994Zm7.303-13.841-13.548-6.968 6.822-12.9 13.549 6.968-6.823 12.9Zm7.303-13.841-13.549-6.968 6.823-12.899 13.452 6.968-6.726 12.899Zm14.125-26.646-6.822 12.9-13.453-6.968 6.823-12.9 13.452 6.968Zm-13.933-8.38-13.548-6.968 6.822-12.899 13.549 6.968-6.823 12.899Zm7.303-13.841-13.549-6.968 6.823-12.899 13.548 6.968-6.822 12.899Zm7.303-13.84-13.549-6.968 6.822-12.9 13.549 6.968-6.822 12.9Zm2.882-33.709-.768.754 10.473 5.367.193-1.036-9.898-5.085Z" fill="#fff"/><path d="M178.918 142.393c-9.897 0-17.968 7.909-17.968 17.607h35.841c0-9.698-7.975-17.607-17.873-17.607Zm41.126 10.921c-3.748 0-6.823 3.013-6.823 6.685h13.645c0-3.766-3.075-6.685-6.822-6.685Z" fill="#FA9269"/></svg>