
<svg xmlns="http://www.w3.org/2000/svg" width="16" height="16" viewBox="0 0 16 16">
    <g fill="none" fill-rule="nonzero">
        <path fill="#00B14F" d="M5.377 14.332a2.896 2.896 0 0 1-3.71-3.71 2.896 2.896 0 0 1 0-5.245 2.896 2.896 0 0 1 3.71-3.71 2.896 2.896 0 0 1 5.246 0 2.896 2.896 0 0 1 3.71 3.71 2.896 2.896 0 0 1 0 5.246 2.896 2.896 0 0 1-3.71 3.71 2.896 2.896 0 0 1-5.246 0z"/>
        <path fill="#FFF" d="M9.888 5.078l1.26.815-3.694 5.701L4.861 9.49l.945-1.165 1.297 1.053z"/>
    </g>
</svg>
